<?xml version="1.0" encoding="UTF-8"?>
<svg xmlns="http://www.w3.org/2000/svg" xmlns:xlink="http://www.w3.org/1999/xlink" width="24pt" height="24pt" viewBox="0 0 24 24" version="1.1">
<path d="M 16.578125 3.339844 L 18.417969 1.488281 C 18.625 1.28125 18.625 0.941406 18.417969 0.734375 L 17.84375 0.15625 C 17.636719 -0.0507812 17.300781 -0.0507812 17.09375 0.15625 L 15.253906 2.007812 C 14.371094 2.894531 13.191406 3.382812 11.9375 3.382812 C 10.683594 3.382812 9.507812 2.894531 8.625 2.007812 L 6.785156 0.15625 C 6.574219 -0.0507812 6.238281 -0.0507812 6.03125 0.15625 L 5.457031 0.734375 C 5.25 0.941406 5.25 1.28125 5.457031 1.488281 L 7.296875 3.339844 C 8.535156 4.582031 10.183594 5.269531 11.9375 5.269531 C 13.691406 5.269531 15.339844 4.582031 16.578125 3.339844 Z M 18.417969 23.265625 C 18.625 23.058594 18.625 22.71875 18.417969 22.511719 L 16.578125 20.660156 C 15.339844 19.417969 13.691406 18.730469 11.9375 18.730469 C 10.183594 18.730469 8.535156 19.417969 7.300781 20.660156 L 5.457031 22.511719 C 5.25 22.71875 5.25 23.058594 5.457031 23.265625 L 6.03125 23.84375 C 6.238281 24.050781 6.578125 24.050781 6.785156 23.84375 L 8.625 21.992188 C 9.507812 21.105469 10.683594 20.617188 11.9375 20.617188 C 13.191406 20.617188 14.371094 21.105469 15.253906 21.992188 L 17.09375 23.84375 C 17.300781 24.050781 17.636719 24.050781 17.84375 23.84375 Z M 20.554688 16.664062 L 22.394531 18.511719 C 22.605469 18.722656 22.941406 18.722656 23.148438 18.511719 L 23.722656 17.9375 C 23.929688 17.726562 23.929688 17.390625 23.722656 17.179688 L 21.882812 15.332031 C 20.996094 14.441406 20.511719 13.261719 20.511719 12 C 20.511719 10.738281 20.996094 9.554688 21.882812 8.667969 L 23.722656 6.820312 C 23.929688 6.609375 23.929688 6.273438 23.722656 6.0625 L 23.148438 5.484375 C 22.941406 5.277344 22.605469 5.277344 22.394531 5.484375 L 20.554688 7.335938 C 19.316406 8.582031 18.636719 10.234375 18.636719 12 C 18.636719 13.761719 19.316406 15.417969 20.554688 16.664062 Z M 0.792969 23.777344 L 0.375 23.355469 L 0.21875 23.203125 C 0.160156 23.140625 0.121094 23.070312 0.09375 22.996094 C 0.03125 22.808594 0.0742188 22.59375 0.21875 22.445312 C 0.453125 22.210938 0.777344 21.882812 1.148438 21.511719 C 2.257812 20.398438 3.761719 18.886719 4.371094 18.273438 L 4.648438 17.996094 C 7.9375 14.6875 7.9375 9.3125 4.648438 6.003906 L 4.046875 5.398438 C 3.996094 5.351562 3.949219 5.300781 3.898438 5.25 L 0.21875 1.554688 C 0.0117188 1.34375 0.0117188 1.007812 0.21875 0.800781 L 0.792969 0.222656 C 0.976562 0.0390625 1.257812 0.015625 1.460938 0.152344 C 1.492188 0.171875 1.519531 0.195312 1.546875 0.222656 L 4.835938 3.53125 L 5.09375 3.785156 C 5.335938 4.03125 5.546875 4.242188 5.699219 4.394531 L 5.972656 4.671875 C 7.566406 6.273438 9.683594 7.15625 11.9375 7.15625 C 14.191406 7.15625 16.308594 6.273438 17.902344 4.671875 L 22.332031 0.222656 C 22.539062 0.0117188 22.875 0.0117188 23.082031 0.222656 L 23.65625 0.796875 C 23.863281 1.007812 23.863281 1.34375 23.65625 1.554688 L 19.230469 6.003906 C 19.230469 6.003906 19.230469 6.003906 19.226562 6.003906 C 17.636719 7.605469 16.757812 9.734375 16.757812 12 C 16.757812 14.265625 17.636719 16.394531 19.230469 17.996094 L 21.441406 20.21875 L 23.65625 22.445312 C 23.683594 22.472656 23.707031 22.5 23.726562 22.53125 C 23.859375 22.738281 23.839844 23.019531 23.65625 23.199219 L 23.082031 23.777344 C 22.875 23.988281 22.539062 23.988281 22.332031 23.777344 L 17.902344 19.328125 C 14.613281 16.023438 9.261719 16.023438 5.972656 19.328125 L 5.351562 19.953125 C 5.308594 19.996094 5.265625 20.039062 5.222656 20.082031 L 1.546875 23.777344 C 1.339844 23.988281 1.003906 23.988281 0.792969 23.777344 Z M 8.644531 14.660156 C 8.539062 15.058594 8.898438 15.417969 9.292969 15.3125 C 11.023438 14.855469 12.851562 14.855469 14.582031 15.3125 C 14.980469 15.417969 15.339844 15.058594 15.234375 14.65625 C 15.003906 13.789062 14.890625 12.894531 14.890625 12 C 14.890625 11.105469 15.003906 10.210938 15.234375 9.34375 C 15.339844 8.941406 14.980469 8.582031 14.582031 8.6875 C 13.71875 8.917969 12.828125 9.035156 11.9375 9.035156 C 11.050781 9.035156 10.160156 8.917969 9.292969 8.6875 C 8.898438 8.582031 8.539062 8.941406 8.644531 9.34375 C 9.101562 11.082031 9.101562 12.917969 8.644531 14.660156 Z M 0.730469 18.511719 C 0.9375 18.722656 1.273438 18.722656 1.480469 18.511719 L 3.320312 16.664062 C 4.558594 15.417969 5.242188 13.761719 5.242188 12 C 5.242188 10.238281 4.558594 8.582031 3.320312 7.335938 L 1.480469 5.488281 C 1.273438 5.277344 0.9375 5.277344 0.730469 5.488281 L 0.15625 6.0625 C -0.0507812 6.273438 -0.0507812 6.609375 0.15625 6.820312 L 1.996094 8.667969 C 2.878906 9.558594 3.367188 10.738281 3.367188 12 C 3.367188 13.261719 2.878906 14.445312 1.996094 15.332031 L 0.15625 17.179688 C -0.0507812 17.390625 -0.0507812 17.726562 0.15625 17.9375 Z M 0.730469 18.511719 "/>
</svg>
